<svg xmlns="http://www.w3.org/2000/svg" xmlns:xlink="http://www.w3.org/1999/xlink" width="24" height="24" viewBox="0 0 24 24">
  <defs>
    <clipPath id="clip-path">
      <path id="_Icon_小olor" data-name=" Icon 小olor" d="M11.667,16H2.333A2.37,2.37,0,0,1,0,13.6V4A2.37,2.37,0,0,1,2.333,1.6h.778V.8A.778.778,0,1,1,4.667.8v.8H9.333V.8a.778.778,0,1,1,1.556,0v.8h.778A2.37,2.37,0,0,1,14,4v9.6A2.37,2.37,0,0,1,11.667,16ZM1.555,8.8v4.8a.79.79,0,0,0,.778.8h9.334a.79.79,0,0,0,.778-.8V8.8Zm.778-5.6a.79.79,0,0,0-.778.8V7.2H12.444V4a.79.79,0,0,0-.778-.8h-.778V4A.778.778,0,1,1,9.333,4V3.2H4.667V4A.778.778,0,1,1,3.111,4V3.2ZM10.111,12H7a.8.8,0,0,1,0-1.6h3.111a.8.8,0,0,1,0,1.6ZM3.889,12a.8.8,0,1,1,.778-.8A.79.79,0,0,1,3.889,12Z" fill="#009bdf"/>
    </clipPath>
    <clipPath id="clip-Date">
      <rect width="24" height="24"/>
    </clipPath>
  </defs>
  <g id="Date" clip-path="url(#clip-Date)">
    <g id="calendar" transform="translate(5 4)">
      <path id="_Icon_小olor-2" data-name=" Icon 小olor" d="M11.667,16H2.333A2.37,2.37,0,0,1,0,13.6V4A2.37,2.37,0,0,1,2.333,1.6h.778V.8A.778.778,0,1,1,4.667.8v.8H9.333V.8a.778.778,0,1,1,1.556,0v.8h.778A2.37,2.37,0,0,1,14,4v9.6A2.37,2.37,0,0,1,11.667,16ZM1.555,8.8v4.8a.79.79,0,0,0,.778.8h9.334a.79.79,0,0,0,.778-.8V8.8Zm.778-5.6a.79.79,0,0,0-.778.8V7.2H12.444V4a.79.79,0,0,0-.778-.8h-.778V4A.778.778,0,1,1,9.333,4V3.2H4.667V4A.778.778,0,1,1,3.111,4V3.2ZM10.111,12H7a.8.8,0,0,1,0-1.6h3.111a.8.8,0,0,1,0,1.6ZM3.889,12a.8.8,0,1,1,.778-.8A.79.79,0,0,1,3.889,12Z" transform="translate(0 0)" fill="#009bdf"/>
    </g>
  </g>
</svg>
