<svg xmlns="http://www.w3.org/2000/svg" xmlns:xlink="http://www.w3.org/1999/xlink" width="32" height="32" viewBox="0 0 32 32">
  <defs>
    <clipPath id="clip-Facebook">
      <rect width="32" height="32"/>
    </clipPath>
  </defs>
  <g id="Facebook" clip-path="url(#clip-Facebook)">
    <path id="_002-facebook" data-name="002-facebook" d="M9.729,26.326H5.514a1.278,1.278,0,0,1-1.277-1.277V15.54H1.777A1.279,1.279,0,0,1,.5,14.263V10.188A1.278,1.278,0,0,1,1.777,8.911h2.46V6.871A6.947,6.947,0,0,1,6.074,1.893,6.617,6.617,0,0,1,10.952,0l3.215.005a1.279,1.279,0,0,1,1.275,1.277V5.065a1.278,1.278,0,0,1-1.277,1.277H12c-.66,0-.828.132-.864.173-.059.067-.13.257-.13.783V8.911h3a1.3,1.3,0,0,1,.632.16,1.282,1.282,0,0,1,.657,1.117l0,4.075a1.278,1.278,0,0,1-1.277,1.277H11.007v9.509A1.279,1.279,0,0,1,9.729,26.326ZM5.78,24.782H9.463V14.849A.854.854,0,0,1,10.316,14h3.431V10.454H10.316A.853.853,0,0,1,9.463,9.6V7.3a2.628,2.628,0,0,1,.516-1.8A2.616,2.616,0,0,1,12,4.8h1.9V1.548l-2.948,0c-3.189,0-5.171,2.041-5.171,5.327V9.6a.854.854,0,0,1-.852.853H2.043V14H4.928a.853.853,0,0,1,.852.853ZM14.164,1.549h0Zm0,0" transform="translate(8.708 3.361)" fill="#009bdf"/>
  </g>
</svg>
