<svg xmlns="http://www.w3.org/2000/svg" xmlns:xlink="http://www.w3.org/1999/xlink" width="32" height="32" viewBox="0 0 32 32">
  <defs>
    <clipPath id="clip-Linked_In">
      <rect width="32" height="32"/>
    </clipPath>
  </defs>
  <g id="Linked_In" data-name="Linked In" clip-path="url(#clip-Linked_In)">
    <g id="_004-linkedin" data-name="004-linkedin" transform="translate(4.612 3.361)">
      <path id="Path_23" data-name="Path 23" d="M5.84,151.625H1.4a.9.9,0,0,0-.9.9v16.725a.9.9,0,0,0,.9.9H5.84a.9.9,0,0,0,.9-.9V152.527A.9.9,0,0,0,5.84,151.625ZM5.2,168.61H2.045V153.17H5.2Zm0,0" transform="translate(-0.474 -143.829)" fill="#009bdf"/>
      <path id="Path_24" data-name="Path 24" d="M3.147,0A3.147,3.147,0,1,0,6.294,3.147,3.15,3.15,0,0,0,3.147,0Zm0,4.749a1.6,1.6,0,1,1,1.6-1.6A1.6,1.6,0,0,1,3.147,4.749Zm0,0" fill="#009bdf"/>
      <path id="Path_25" data-name="Path 25" d="M170.371,153.59a5.758,5.758,0,0,0-3.8-1.333,5.819,5.819,0,0,0-2.465.6v-.365a.862.862,0,0,0-.862-.862h-4.519a.862.862,0,0,0-.862.862V169.3a.862.862,0,0,0,.862.862h4.608a.772.772,0,0,0,.772-.772v-10.02a1.6,1.6,0,0,1,1.528-1.609,1.578,1.578,0,0,1,1.624,1.576V169.4a.756.756,0,0,0,.756.756h4.429a.756.756,0,0,0,.756-.756v-9.764A7.86,7.86,0,0,0,170.371,153.59Zm1.287,15.024h-2.851v-9.281a3.121,3.121,0,0,0-6.242,0v9.281h-3.153v-15.44h3.153V154.3h0a.771.771,0,0,0,1.283.578A4.279,4.279,0,0,1,166.6,153.8a4.209,4.209,0,0,1,2.778.975,6.319,6.319,0,0,1,2.277,4.863Zm0,0" transform="translate(-149.75 -143.833)" fill="#009bdf"/>
    </g>
  </g>
</svg>
