<svg xmlns="http://www.w3.org/2000/svg" width="196.774" height="65" viewBox="0 0 196.774 65">
  <g id="Group_280" data-name="Group 280" transform="translate(-139)">
    <path id="Path_239" data-name="Path 239" d="M0,0H196.774V65H0Z" transform="translate(139)" fill="#02223a"/>
    <path id="Path_245" data-name="Path 245" d="M-503.47,85.816l3.788-5.515-9.424-6.813-2.528,2.758L-526.2,60.833v45.909h38.3Zm-20.111,18.695-.394-38.229,11.056,12.363-4.542,5.39.263,20.476Zm8.03-18.83,7.3-9.382,5.654,4.183-3.679,5.262L-492,104.511h-21.777l.067-7.608h6.318Z" transform="translate(683.476 -51.082)" fill="#009bdf"/>
    <path id="Path_247" data-name="Path 247" d="M4.788.168A3.824,3.824,0,0,1,2-.854,3.708,3.708,0,0,1,.952-3.64V-4.984A3.564,3.564,0,0,1,2.2-7.84,5.586,5.586,0,0,1,5.908-8.9H9.744V-9.94a2.374,2.374,0,0,0-.252-1.19,1.552,1.552,0,0,0-.952-.644,7.685,7.685,0,0,0-2.072-.21H1.96v-2.408a20.672,20.672,0,0,1,6.02-.84,7.28,7.28,0,0,1,4.438,1.12q1.47,1.12,1.47,3.892V0H10.612L9.94-1.6a4.91,4.91,0,0,1-1.092.728A9.45,9.45,0,0,1,6.986-.14,7.962,7.962,0,0,1,4.788.168ZM6.944-2.716a5.605,5.605,0,0,0,1.6-.294,8.185,8.185,0,0,0,1.2-.434v-3.5l-2.52.168Q5.1-6.608,5.1-4.928v.616Q5.1-2.716,6.944-2.716ZM21.7.056a4.749,4.749,0,0,1-3.542-1.19A5.14,5.14,0,0,1,17-4.844v-16.52H21.14v15.9A3.087,3.087,0,0,0,21.5-3.738a1.653,1.653,0,0,0,1.2.63l1.148.168v3ZM38.444.168A30.315,30.315,0,0,1,35.21-.014,12.535,12.535,0,0,1,32.62-.5V-2.94h6.664A2.548,2.548,0,0,0,40.6-3.192a1.08,1.08,0,0,0,.392-.98v-.476a1.048,1.048,0,0,0-.378-.882,2.237,2.237,0,0,0-1.33-.294H36.932A5.26,5.26,0,0,1,33.6-6.79a3.726,3.726,0,0,1-1.232-3.122v-.868A3.979,3.979,0,0,1,33.726-14.1q1.358-1.078,4.69-1.078a23.484,23.484,0,0,1,3,.21,13.949,13.949,0,0,1,2.464.49v2.436h-6.3a2.207,2.207,0,0,0-1.26.28,1.124,1.124,0,0,0-.392.98v.448a.983.983,0,0,0,.42.938,3.014,3.014,0,0,0,1.4.238h2.408A4.677,4.677,0,0,1,43.47-8.134a3.84,3.84,0,0,1,1.078,2.926v1.344A3.347,3.347,0,0,1,43.036-.742,9.113,9.113,0,0,1,38.444.168Zm11.872,0A3.824,3.824,0,0,1,47.53-.854,3.708,3.708,0,0,1,46.48-3.64V-4.984A3.564,3.564,0,0,1,47.726-7.84,5.586,5.586,0,0,1,51.436-8.9h3.836V-9.94a2.374,2.374,0,0,0-.252-1.19,1.552,1.552,0,0,0-.952-.644A7.685,7.685,0,0,0,52-11.984H47.488v-2.408a20.672,20.672,0,0,1,6.02-.84,7.28,7.28,0,0,1,4.438,1.12q1.47,1.12,1.47,3.892V0H56.14l-.672-1.6a4.91,4.91,0,0,1-1.092.728,9.45,9.45,0,0,1-1.862.728A7.962,7.962,0,0,1,50.316.168Zm2.156-2.884a5.605,5.605,0,0,0,1.6-.294,8.185,8.185,0,0,0,1.2-.434v-3.5l-2.52.168q-2.128.168-2.128,1.848v.616Q50.624-2.716,52.472-2.716ZM71.036.168a6.27,6.27,0,0,1-2.394-.42,8.171,8.171,0,0,1-1.974-1.176L66,0H62.524V-21.364h4.144V-14a12.467,12.467,0,0,1,2.1-.9,6.739,6.739,0,0,1,2.072-.364,5.374,5.374,0,0,1,3.094.8,4.55,4.55,0,0,1,1.694,2.52,15.977,15.977,0,0,1,.532,4.578,10.224,10.224,0,0,1-1.26,5.67A4.344,4.344,0,0,1,71.036.168ZM69.5-3.22a2.114,2.114,0,0,0,1.862-.98,6.317,6.317,0,0,0,.658-3.36,8.9,8.9,0,0,0-.336-2.786A2.224,2.224,0,0,0,70.8-11.62a2.609,2.609,0,0,0-1.3-.308,5.651,5.651,0,0,0-2.828.84v7.14A5.855,5.855,0,0,0,69.5-3.22ZM85.232.14a9.741,9.741,0,0,1-4-.672,4.1,4.1,0,0,1-2.114-2.324A13,13,0,0,1,78.456-7.5a14.271,14.271,0,0,1,.616-4.746,3.974,3.974,0,0,1,2.03-2.338,9.521,9.521,0,0,1,3.99-.672,11.605,11.605,0,0,1,3.612.448,3.276,3.276,0,0,1,1.918,1.568,6.783,6.783,0,0,1,.6,3.164,3.618,3.618,0,0,1-1.246,3.108,6.026,6.026,0,0,1-3.626.924h-3.78a5.073,5.073,0,0,0,.364,1.862,1.858,1.858,0,0,0,1.092.952,6.873,6.873,0,0,0,2.3.294h4.4V-.5q-1.484.308-2.688.476A20.508,20.508,0,0,1,85.232.14Zm.7-8.652a1.807,1.807,0,0,0,1.246-.35,1.568,1.568,0,0,0,.378-1.19A2.2,2.2,0,0,0,87-11.774a2.9,2.9,0,0,0-1.9-.49,3.018,3.018,0,0,0-1.526.322,1.894,1.894,0,0,0-.8,1.134,8.122,8.122,0,0,0-.252,2.3ZM100.268.14a9.741,9.741,0,0,1-4-.672A4.1,4.1,0,0,1,94.15-2.856,13,13,0,0,1,93.492-7.5a14.271,14.271,0,0,1,.616-4.746,3.974,3.974,0,0,1,2.03-2.338,9.521,9.521,0,0,1,3.99-.672,11.605,11.605,0,0,1,3.612.448,3.276,3.276,0,0,1,1.918,1.568,6.783,6.783,0,0,1,.6,3.164,3.618,3.618,0,0,1-1.246,3.108,6.026,6.026,0,0,1-3.626.924h-3.78a5.073,5.073,0,0,0,.364,1.862,1.858,1.858,0,0,0,1.092.952,6.873,6.873,0,0,0,2.3.294h4.4V-.5q-1.484.308-2.688.476A20.508,20.508,0,0,1,100.268.14Zm.7-8.652a1.807,1.807,0,0,0,1.246-.35,1.568,1.568,0,0,0,.378-1.19,2.2,2.2,0,0,0-.56-1.722,2.9,2.9,0,0,0-1.9-.49,3.018,3.018,0,0,0-1.526.322,1.894,1.894,0,0,0-.8,1.134,8.122,8.122,0,0,0-.252,2.3ZM113.68.056a4.749,4.749,0,0,1-3.542-1.19,5.14,5.14,0,0,1-1.162-3.71v-16.52h4.144v15.9a3.087,3.087,0,0,0,.364,1.722,1.653,1.653,0,0,0,1.2.63l1.148.168v3Z" transform="translate(202 33)" fill="#fff"/>
    <path id="Path_248" data-name="Path 248" d="M2.86.06Q2.39.06,1.695.005A10.655,10.655,0,0,1,.63-.12V-.73q.78.08,2.2.08A2.4,2.4,0,0,0,4.01-.89a.915.915,0,0,0,.42-.87v-.5q0-1.04-1.1-1.04H2.54A2.2,2.2,0,0,1,1.1-3.715,1.689,1.689,0,0,1,.6-5.08V-5.5a1.814,1.814,0,0,1,.54-1.465,2.43,2.43,0,0,1,1.6-.455q.45,0,1.085.065T4.86-7.21v.6Q3.51-6.7,2.82-6.7a1.858,1.858,0,0,0-1.1.265,1.127,1.127,0,0,0-.36.965v.34a1,1,0,0,0,.3.825,1.423,1.423,0,0,0,.9.245h.85a1.755,1.755,0,0,1,1.32.465A1.714,1.714,0,0,1,5.19-2.35v.57A1.578,1.578,0,0,1,4.565-.345,3.109,3.109,0,0,1,2.86.06ZM8.55-7.36h.8V0h-.8Zm4.48,0h.65l3.84,5.99V-7.36h.79V0h-.65L13.82-5.99V0h-.79ZM24.13.06a3.2,3.2,0,0,1-1.5-.295,1.834,1.834,0,0,1-.82-1.105,7.877,7.877,0,0,1-.27-2.36,7.225,7.225,0,0,1,.28-2.275A1.953,1.953,0,0,1,22.67-7.1a3.1,3.1,0,0,1,1.52-.32,8.544,8.544,0,0,1,1.055.075,8.347,8.347,0,0,1,1.055.2v.59q-.35-.05-.9-.1t-1.09-.05a2.333,2.333,0,0,0-1.17.245,1.459,1.459,0,0,0-.615.89,6.91,6.91,0,0,0-.2,1.885,7.475,7.475,0,0,0,.185,1.925,1.4,1.4,0,0,0,.595.88,2.406,2.406,0,0,0,1.18.235A12.188,12.188,0,0,0,26.3-.78v.6a8.656,8.656,0,0,1-1.035.175A10.1,10.1,0,0,1,24.13.06Zm6.8-.02a1.853,1.853,0,0,1-1.065-.295A1.281,1.281,0,0,1,29.43-1.39V-5.88a1.391,1.391,0,0,1,.42-1.13,1.555,1.555,0,0,1,1.03-.35q1.6.03,2.49.07l.59.02v.64H31.08a.765.765,0,0,0-.85.88v1.74l3.29.05v.61l-3.29.05v1.73a.82.82,0,0,0,.24.69,1.059,1.059,0,0,0,.65.18h2.84v.64Q32.06.04,30.93.04ZM43.18-6.65l-1.51.41v-.51l1.59-.68h.72V0h-.8Zm6.6,6.7a15.92,15.92,0,0,1-1.83-.11V-.67h1.82a1.552,1.552,0,0,0,1.345-.67,3.417,3.417,0,0,0,.475-1.98,16.142,16.142,0,0,1-2.03.1,2.68,2.68,0,0,1-1.54-.36,1.343,1.343,0,0,1-.51-1.18V-5.79a1.5,1.5,0,0,1,.465-1.22A1.859,1.859,0,0,1,49.21-7.4h1.14a1.838,1.838,0,0,1,1.11.32,2.079,2.079,0,0,1,.68,1.135,8.33,8.33,0,0,1,.24,2.255Q52.38.05,49.78.05ZM51.59-3.9a7.194,7.194,0,0,0-.155-1.69,1.568,1.568,0,0,0-.45-.85,1.174,1.174,0,0,0-.765-.24h-.86a1.236,1.236,0,0,0-.785.225.946.946,0,0,0-.285.785v.78a.832.832,0,0,0,.35.785,2.257,2.257,0,0,0,1.1.205ZM58.01.05a15.92,15.92,0,0,1-1.83-.11V-.67H58a1.552,1.552,0,0,0,1.345-.67,3.417,3.417,0,0,0,.475-1.98,16.142,16.142,0,0,1-2.03.1,2.68,2.68,0,0,1-1.54-.36,1.343,1.343,0,0,1-.51-1.18V-5.79a1.5,1.5,0,0,1,.465-1.22A1.859,1.859,0,0,1,57.44-7.4h1.14a1.838,1.838,0,0,1,1.11.32,2.079,2.079,0,0,1,.68,1.135,8.33,8.33,0,0,1,.24,2.255Q60.61.05,58.01.05ZM59.82-3.9a7.194,7.194,0,0,0-.155-1.69,1.568,1.568,0,0,0-.45-.85,1.174,1.174,0,0,0-.765-.24h-.86a1.236,1.236,0,0,0-.785.225.946.946,0,0,0-.285.785v.78a.832.832,0,0,0,.35.785,2.257,2.257,0,0,0,1.1.205ZM65.9.02a1.951,1.951,0,0,1-1.335-.435,1.659,1.659,0,0,1-.5-1.315v-3.9a1.72,1.72,0,0,1,.5-1.325A1.875,1.875,0,0,1,65.9-7.42h1.43a1.717,1.717,0,0,1,1.33.48,1.865,1.865,0,0,1,.44,1.31v3.9a1.707,1.707,0,0,1-.47,1.315,1.841,1.841,0,0,1-1.3.435Zm1.25-.71A1.012,1.012,0,0,0,68.3-1.83V-5.57A.994.994,0,0,0,67.18-6.7H66.03a1.183,1.183,0,0,0-.85.3,1.1,1.1,0,0,0-.31.835v3.74a1.108,1.108,0,0,0,.31.85,1.225,1.225,0,0,0,.87.29Z" transform="translate(223 53)" fill="#fff"/>
    <path id="Path_246" data-name="Path 246" d="M-159.687,5265h114" transform="translate(363.688 -5225)" fill="none" stroke="#af2323" stroke-width="1"/>
  </g>
</svg>
