<svg xmlns="http://www.w3.org/2000/svg" xmlns:xlink="http://www.w3.org/1999/xlink" width="178" height="60" viewBox="0 0 178 60">
  <defs>
    <clipPath id="clip-Logo">
      <rect width="178" height="60"/>
    </clipPath>
  </defs>
  <g id="Logo" clip-path="url(#clip-Logo)">
    <g id="Group_335" data-name="Group 335" transform="translate(22028.359 -11556)">
      <path id="Path_245" data-name="Path 245" d="M-503.47,85.816l3.788-5.515-9.424-6.813-2.528,2.758L-526.2,60.833v45.909h38.3Zm-20.111,18.695-.394-38.229,11.056,12.363-4.542,5.39.263,20.476Zm8.03-18.83,7.3-9.382,5.654,4.183-3.679,5.262L-492,104.511h-21.777l.067-7.608h6.318Z" transform="translate(-21496.523 11501.918)" fill="#009bdf"/>
      <path id="Path_246" data-name="Path 246" d="M-159.687,5265h114" transform="translate(-21816.313 6328)" fill="none" stroke="#af2323" stroke-width="1"/>
      <path id="Path_605" data-name="Path 605" d="M1.643-14.849c-.217.155-.217.372-.062.682l1.271,2.418a.5.5,0,0,0,.744.186,9.048,9.048,0,0,1,3.875-.868c2.015,0,2.6.9,2.6,2.542v.31A21.934,21.934,0,0,0,7.44-9.765C3.224-9.765.682-8.153.682-4.929.682-1.271,3.5.4,7.967.4a23.538,23.538,0,0,0,6.386-.9.6.6,0,0,0,.465-.62V-9.61c0-4.712-2.511-6.944-6.789-6.944A12.13,12.13,0,0,0,1.643-14.849Zm3.844,9.8c0-.992.744-1.55,2.449-1.55a11.941,11.941,0,0,1,2.139.186v2.728a10.632,10.632,0,0,1-2.108.248C6.479-3.441,5.487-3.968,5.487-5.053ZM25.73.217c.217-.031.341-.279.341-.558v-3.1a.483.483,0,0,0-.589-.527c-.31.031-.651.031-.961.031-1.209,0-1.829-.713-1.829-2.263V-21.607c0-.372-.186-.558-.527-.558H18.507a.493.493,0,0,0-.558.558v16C17.949-1.829,20.026.4,23.684.4A11.541,11.541,0,0,0,25.73.217ZM46.686-5.022c0-3.162-2.573-4.5-5.8-5.053-1.984-.31-2.7-.558-2.7-1.426,0-.775.651-1.147,1.984-1.147a7.919,7.919,0,0,1,3.6.9.506.506,0,0,0,.744-.217l1.426-2.418a.475.475,0,0,0-.186-.744,11.414,11.414,0,0,0-5.487-1.426c-4.061,0-6.727,1.7-6.727,5.115,0,3.255,2.759,4.681,6.138,5.239,1.24.217,2.232.5,2.232,1.3s-.9,1.24-2.2,1.24a7.81,7.81,0,0,1-4.433-1.395c-.31-.217-.527-.155-.744.186l-1.457,2.48a.507.507,0,0,0,.155.775A11.382,11.382,0,0,0,39.68.4C44.113.4,46.686-1.4,46.686-5.022Zm2.48-9.827c-.217.155-.217.372-.062.682l1.271,2.418a.5.5,0,0,0,.744.186,9.048,9.048,0,0,1,3.875-.868c2.015,0,2.6.9,2.6,2.542v.31a21.934,21.934,0,0,0-2.635-.186c-4.216,0-6.758,1.612-6.758,4.836C48.2-1.271,51.026.4,55.49.4a23.538,23.538,0,0,0,6.386-.9.6.6,0,0,0,.465-.62V-9.61c0-4.712-2.511-6.944-6.789-6.944A12.13,12.13,0,0,0,49.166-14.849Zm3.844,9.8c0-.992.744-1.55,2.449-1.55a11.941,11.941,0,0,1,2.139.186v2.728a10.632,10.632,0,0,1-2.108.248C54-3.441,53.01-3.968,53.01-5.053Zm17.3-10.974v-5.58c0-.372-.186-.558-.527-.558H66.123a.493.493,0,0,0-.558.558V-1.364A.633.633,0,0,0,66-.713,20.837,20.837,0,0,0,72.54.4c4.34,0,7.347-2.6,7.347-7.037V-9.7c0-4.185-2.728-6.851-6.7-6.851A9.012,9.012,0,0,0,70.308-16.027ZM72.447-3.813a6.449,6.449,0,0,1-2.139-.341V-11.9a4.673,4.673,0,0,1,2.17-.527,2.346,2.346,0,0,1,2.6,2.666v3.224C75.082-4.619,74.121-3.813,72.447-3.813ZM96.441-9.951c0-4.681-3.1-6.6-6.913-6.6-3.937,0-7.192,1.984-7.192,6.6v3.906C82.336-1.736,85.591.4,89.621.4a10.017,10.017,0,0,0,6.324-2.046.521.521,0,0,0,.093-.775L94.426-4.557a.441.441,0,0,0-.713-.124,7.621,7.621,0,0,1-3.937,1.116c-1.643,0-2.666-.806-2.666-2.387v-.5h8.773c.372,0,.558-.186.558-.527Zm-4.557-.217v.651H87.11v-.651A2.175,2.175,0,0,1,89.5-12.617,2.2,2.2,0,0,1,91.884-10.168Zm20.987.217c0-4.681-3.1-6.6-6.913-6.6-3.937,0-7.192,1.984-7.192,6.6v3.906c0,4.309,3.255,6.448,7.285,6.448a10.017,10.017,0,0,0,6.324-2.046.521.521,0,0,0,.093-.775l-1.612-2.139a.441.441,0,0,0-.713-.124,7.621,7.621,0,0,1-3.937,1.116c-1.643,0-2.666-.806-2.666-2.387v-.5h8.773c.372,0,.558-.186.558-.527Zm-4.557-.217v.651H103.54v-.651a2.175,2.175,0,0,1,2.387-2.449A2.2,2.2,0,0,1,108.314-10.168ZM123.349.217c.217-.031.341-.279.341-.558v-3.1a.483.483,0,0,0-.589-.527c-.31.031-.651.031-.961.031-1.209,0-1.829-.713-1.829-2.263V-21.607c0-.372-.186-.558-.527-.558h-3.658a.493.493,0,0,0-.558.558v16C115.568-1.829,117.645.4,121.3.4A11.541,11.541,0,0,0,123.349.217Z" transform="translate(-21980 11586)" fill="#02223a"/>
      <path id="Path_606" data-name="Path 606" d="M6.768-2.328c0-1.7-1.416-2.208-3.012-2.568-1.26-.288-2.1-.612-2.1-1.524,0-.876.8-1.344,1.944-1.344a4.227,4.227,0,0,1,2.328.78.125.125,0,0,0,.192-.024l.4-.564a.11.11,0,0,0-.036-.18,4.442,4.442,0,0,0-2.8-.96c-1.644,0-3.06.684-3.06,2.268S2.04-4.236,3.492-3.912c1.368.3,2.244.612,2.244,1.608S4.752-.84,3.66-.84A4.034,4.034,0,0,1,1.188-1.8a.116.116,0,0,0-.18.036L.6-1.2a.126.126,0,0,0,.024.192,4.425,4.425,0,0,0,3,1.14C5.316.132,6.768-.612,6.768-2.328Zm6.192-6.12a.12.12,0,0,0-.132-.132h-.744c-.1,0-.144.048-.144.132V-.132c0,.084.048.132.144.132h.744a.12.12,0,0,0,.132-.132ZM19.572,0a.129.129,0,0,0,.144-.132V-3.768c0-.948-.036-2.184-.072-3.132l.024-.012c.3.576.7,1.26,1.044,1.824l3.156,5A.182.182,0,0,0,24.036,0h.84a.12.12,0,0,0,.132-.132V-8.448a.12.12,0,0,0-.132-.132h-.744A.12.12,0,0,0,24-8.448v3.636c0,1.008.024,2.256.072,3.252l-.036.012c-.3-.564-.684-1.2-1.008-1.752l-3.18-5.184a.207.207,0,0,0-.168-.1h-.84c-.1,0-.144.048-.144.132V-.132c0,.084.048.132.144.132ZM36.336-.78c.084-.06.084-.12.036-.2l-.4-.552c-.048-.084-.12-.1-.18-.036a3.629,3.629,0,0,1-2.208.744,1.9,1.9,0,0,1-2.112-2.016V-5.736a1.891,1.891,0,0,1,2.1-2.016,3.438,3.438,0,0,1,2,.648c.084.048.156.048.2-.024l.384-.564c.048-.072.048-.132-.024-.18a4.317,4.317,0,0,0-2.556-.84,2.861,2.861,0,0,0-3.132,2.976v2.9A2.86,2.86,0,0,0,33.612.132,4.267,4.267,0,0,0,36.336-.78ZM42.42-3.888H46.1c.084,0,.132-.048.132-.144v-.66c0-.1-.048-.144-.132-.144H42.42V-7.644h3.96a.12.12,0,0,0,.132-.132v-.672a.12.12,0,0,0-.132-.132H41.532c-.1,0-.144.048-.144.132V-.132c0,.084.048.132.144.132h5.016a.12.12,0,0,0,.132-.132V-.8a.12.12,0,0,0-.132-.132H42.42ZM60.264,0c.1,0,.144-.048.144-.132V-8.448c0-.084-.048-.132-.144-.132h-.612a.312.312,0,0,0-.18.048L57.444-7.188A.138.138,0,0,0,57.408-7l.336.552a.127.127,0,0,0,.192.036l1.476-.984v7.26c0,.084.048.132.144.132ZM65.64-5.844a2.509,2.509,0,0,0,2.748,2.736,2.412,2.412,0,0,0,1.956-.84V-2.6A1.718,1.718,0,0,1,68.508-.816a2.734,2.734,0,0,1-1.932-.84c-.072-.06-.144-.06-.192.012l-.4.54A.135.135,0,0,0,66-.912,3.653,3.653,0,0,0,68.52.132a2.645,2.645,0,0,0,2.82-2.784V-5.928a2.684,2.684,0,0,0-2.856-2.784A2.715,2.715,0,0,0,65.64-5.844Zm1-.012a1.738,1.738,0,0,1,1.836-1.92,1.739,1.739,0,0,1,1.872,1.848v.144a1.72,1.72,0,0,1-1.872,1.74A1.625,1.625,0,0,1,66.636-5.856Zm9.672.012a2.509,2.509,0,0,0,2.748,2.736,2.412,2.412,0,0,0,1.956-.84V-2.6A1.718,1.718,0,0,1,79.176-.816a2.734,2.734,0,0,1-1.932-.84c-.072-.06-.144-.06-.192.012l-.4.54a.135.135,0,0,0,.012.192A3.653,3.653,0,0,0,79.188.132a2.645,2.645,0,0,0,2.82-2.784V-5.928a2.684,2.684,0,0,0-2.856-2.784A2.715,2.715,0,0,0,76.308-5.844Zm1-.012a1.738,1.738,0,0,1,1.836-1.92,1.739,1.739,0,0,1,1.872,1.848v.144a1.72,1.72,0,0,1-1.872,1.74A1.625,1.625,0,0,1,77.3-5.856ZM92.928-2.7V-5.9a2.657,2.657,0,0,0-2.856-2.808A2.67,2.67,0,0,0,87.192-5.9v3.2A2.682,2.682,0,0,0,90.072.132,2.67,2.67,0,0,0,92.928-2.7Zm-4.74.036v-3.2a1.723,1.723,0,0,1,1.884-1.884,1.711,1.711,0,0,1,1.86,1.884v3.2a1.7,1.7,0,0,1-1.86,1.836A1.715,1.715,0,0,1,88.188-2.664Z" transform="translate(-21966 11608)" fill="#02223a"/>
    </g>
  </g>
</svg>
