<svg xmlns="http://www.w3.org/2000/svg" xmlns:xlink="http://www.w3.org/1999/xlink" width="32" height="32" viewBox="0 0 32 32">
  <defs>
    <clipPath id="clip-Twitter">
      <rect width="32" height="32"/>
    </clipPath>
  </defs>
  <g id="Twitter" clip-path="url(#clip-Twitter)">
    <path id="_005-twitter" data-name="005-twitter" d="M10.017,21.734c-4.394,0-7.867-.768-9.528-2.106L.457,19.6l-.029-.029a1.351,1.351,0,0,1-.355-1.421l.015-.042a1.376,1.376,0,0,1,1.256-.864,11.344,11.344,0,0,0,3-.414,5.693,5.693,0,0,1-3-3.467,1.229,1.229,0,0,1,.429-1.433,1.254,1.254,0,0,1,.374-.191A8.3,8.3,0,0,1,.444,8.69l-.01-.034L.427,8.621A1.28,1.28,0,0,1,1.02,7.248a1.274,1.274,0,0,1,.607-.171A6.419,6.419,0,0,1,1.142,5.6,6.19,6.19,0,0,1,1.8,1.472l.163-.327A.91.91,0,0,1,3.422.909l.3.3a14.037,14.037,0,0,0,8.094,4.432,6.448,6.448,0,0,1,1.741-3.717A6.108,6.108,0,0,1,17.914,0h.011a8.735,8.735,0,0,1,3.6,1.173C22.305.92,23.24.527,24.21.111a1.224,1.224,0,0,1,1.37.241,1.2,1.2,0,0,1,.261,1.322q-.106.294-.239.577a1.226,1.226,0,0,1,.357.246,1.324,1.324,0,0,1,.329,1.237l-.012.042a5.05,5.05,0,0,1-2.029,2.785C24.088,14.958,17.766,21.734,10.017,21.734ZM1.97,18.769c1.566.886,4.549,1.422,8.047,1.422a12.054,12.054,0,0,0,8.937-4.066A14.567,14.567,0,0,0,22.705,6.24V6.2a.909.909,0,0,1,.485-.8,3.278,3.278,0,0,0,1.419-1.57.91.91,0,0,1-.877-1.434,5.011,5.011,0,0,0,.344-.545c-.837.352-1.633.667-2.323.877a.987.987,0,0,1-.76-.082,7.522,7.522,0,0,0-3.064-1.1,4.8,4.8,0,0,0-4.617,4.864.911.911,0,0,1-1.087.893c-4.2-.827-6.683-2.066-9.268-4.665a4.558,4.558,0,0,0-.3,2.665A5.633,5.633,0,0,0,3.994,7.895a.91.91,0,0,1-.919,1.48,4.17,4.17,0,0,1-.849-.326,7.691,7.691,0,0,0,2.637,3.058.91.91,0,0,1-.582,1.659A4.093,4.093,0,0,1,3.072,13.5a4.152,4.152,0,0,0,3.313,2.348.911.911,0,0,1,.271,1.7A10.939,10.939,0,0,1,1.97,18.769Zm0,0" transform="translate(3.674 6.082)" fill="#009bdf"/>
  </g>
</svg>
