<svg xmlns="http://www.w3.org/2000/svg" xmlns:xlink="http://www.w3.org/1999/xlink" width="32" height="32" viewBox="0 0 32 32">
  <defs>
    <clipPath id="clip-Youtube">
      <rect width="32" height="32"/>
    </clipPath>
  </defs>
  <g id="Youtube" clip-path="url(#clip-Youtube)">
    <g id="_003-youtube" data-name="003-youtube" transform="translate(3.403 6.508)">
      <path id="Path_21" data-name="Path 21" d="M198.342,109.838l-5.816-3.182a1.068,1.068,0,0,0-1.581.937v6.31a1.066,1.066,0,0,0,1.574.941l5.816-3.127a1.068,1.068,0,0,0,.007-1.878Zm-5.854,3.271v-4.716l4.347,2.378Zm0,0" transform="translate(-181.127 -101.046)" fill="#009bdf"/>
      <path id="Path_22" data-name="Path 22" d="M26.132,4.706V4.694a6.021,6.021,0,0,0-1.161-3.055A4.284,4.284,0,0,0,22.133.309L22,.293l-.046,0C18.476.035,13.22,0,13.168,0h-.009c-.053,0-5.309.035-8.82.288l-.046,0L4.168.308A4.176,4.176,0,0,0,1.348,1.679a6.309,6.309,0,0,0-1.151,3l0,.027C.186,4.794,0,6.893,0,9v1.97c0,2.107.186,4.206.194,4.295v.013A5.962,5.962,0,0,0,1.351,18.3a4.371,4.371,0,0,0,2.932,1.312c.107.012.2.023.262.034l.061.008c2.01.191,8.31.285,8.577.289H13.2c.053,0,5.308-.035,8.789-.288l.046,0,.148-.017a4.079,4.079,0,0,0,2.8-1.338,6.309,6.309,0,0,0,1.151-3l0-.027c.008-.088.194-2.187.194-4.295V9C26.326,6.893,26.14,4.794,26.132,4.706Zm-1.349,6.265c0,1.95-.17,3.959-.186,4.144a4.9,4.9,0,0,1-.757,2.137,2.537,2.537,0,0,1-1.821.845l-.164.018c-3.366.243-8.424.281-8.657.282-.261,0-6.47-.1-8.418-.28-.1-.016-.208-.029-.321-.042a2.885,2.885,0,0,1-1.973-.824l-.014-.015A4.444,4.444,0,0,1,1.73,15.12c-.012-.139-.187-2.172-.187-4.15V9c0-1.948.17-3.955.186-4.143A4.8,4.8,0,0,1,2.486,2.72a2.662,2.662,0,0,1,1.859-.88l.126-.015c3.415-.245,8.509-.281,8.692-.282s5.275.038,8.66.282l.136.016a2.763,2.763,0,0,1,1.889.856l.006.007A4.515,4.515,0,0,1,24.6,4.85c.012.132.187,2.168.187,4.15Zm0,0" transform="translate(0)" fill="#009bdf"/>
    </g>
  </g>
</svg>
